<svg width="344" height="83" viewBox="0 0 344 83" fill="none" xmlns="http://www.w3.org/2000/svg">
<g id="action-legend">
<g id="interact-legend">
<g id="Group 11">
<path id="Hold/Release" d="M251.145 48V38.5455H252.29V42.7557H257.331V38.5455H258.476V48H257.331V43.7713H252.29V48H251.145ZM263.501 48.1477C262.861 48.1477 262.299 47.9954 261.816 47.6907C261.336 47.386 260.96 46.9598 260.689 46.4119C260.422 45.8641 260.288 45.224 260.288 44.4915C260.288 43.7528 260.422 43.1081 260.689 42.5572C260.96 42.0063 261.336 41.5785 261.816 41.2738C262.299 40.9691 262.861 40.8168 263.501 40.8168C264.141 40.8168 264.701 40.9691 265.181 41.2738C265.664 41.5785 266.04 42.0063 266.308 42.5572C266.579 43.1081 266.714 43.7528 266.714 44.4915C266.714 45.224 266.579 45.8641 266.308 46.4119C266.04 46.9598 265.664 47.386 265.181 47.6907C264.701 47.9954 264.141 48.1477 263.501 48.1477ZM263.501 47.169C263.987 47.169 264.387 47.0444 264.701 46.7951C265.015 46.5458 265.247 46.218 265.398 45.8118C265.549 45.4055 265.624 44.9654 265.624 44.4915C265.624 44.0175 265.549 43.5759 265.398 43.1665C265.247 42.7572 265.015 42.4264 264.701 42.174C264.387 41.9216 263.987 41.7955 263.501 41.7955C263.015 41.7955 262.615 41.9216 262.301 42.174C261.987 42.4264 261.754 42.7572 261.604 43.1665C261.453 43.5759 261.377 44.0175 261.377 44.4915C261.377 44.9654 261.453 45.4055 261.604 45.8118C261.754 46.218 261.987 46.5458 262.301 46.7951C262.615 47.0444 263.015 47.169 263.501 47.169ZM269.467 38.5455V48H268.377V38.5455H269.467ZM274.14 48.1477C273.549 48.1477 273.027 47.9985 272.575 47.6999C272.122 47.3983 271.768 46.9736 271.513 46.4258C271.257 45.8749 271.13 45.224 271.13 44.473C271.13 43.7282 271.257 43.0819 271.513 42.5341C271.768 41.9863 272.124 41.5631 272.579 41.2646C273.035 40.966 273.561 40.8168 274.158 40.8168C274.62 40.8168 274.984 40.8937 275.252 41.0476C275.523 41.1984 275.729 41.3707 275.871 41.5646C276.015 41.7554 276.128 41.9124 276.208 42.0355H276.3V38.5455H277.39V48H276.337V46.9105H276.208C276.128 47.0398 276.014 47.2029 275.866 47.3999C275.718 47.5937 275.508 47.7676 275.234 47.9215C274.96 48.0723 274.595 48.1477 274.14 48.1477ZM274.287 47.169C274.724 47.169 275.094 47.0552 275.395 46.8274C275.697 46.5966 275.926 46.2781 276.083 45.8718C276.24 45.4625 276.319 44.9901 276.319 44.4545C276.319 43.9252 276.242 43.462 276.088 43.065C275.934 42.6649 275.706 42.354 275.404 42.1325C275.103 41.9078 274.73 41.7955 274.287 41.7955C273.826 41.7955 273.441 41.9139 273.133 42.1509C272.828 42.3848 272.599 42.7034 272.445 43.1065C272.295 43.5066 272.219 43.956 272.219 44.4545C272.219 44.9593 272.296 45.4179 272.45 45.8303C272.607 46.2396 272.838 46.5658 273.142 46.8089C273.45 47.049 273.832 47.169 274.287 47.169ZM282.879 38.1023L279.832 49.4219H278.835L281.881 38.1023H282.879ZM284.318 48V38.5455H287.512C288.251 38.5455 288.857 38.6716 289.331 38.924C289.805 39.1733 290.156 39.5165 290.384 39.9535C290.612 40.3905 290.725 40.8875 290.725 41.4446C290.725 42.0017 290.612 42.4956 290.384 42.9265C290.156 43.3574 289.807 43.6959 289.336 43.9421C288.865 44.1853 288.263 44.3068 287.531 44.3068H284.946V43.2727H287.494C287.999 43.2727 288.405 43.1989 288.713 43.0511C289.023 42.9034 289.248 42.6941 289.387 42.4233C289.528 42.1494 289.599 41.8232 289.599 41.4446C289.599 41.0661 289.528 40.7352 289.387 40.4521C289.245 40.1689 289.019 39.9504 288.708 39.7965C288.397 39.6396 287.986 39.5611 287.475 39.5611H285.463V48H284.318ZM288.768 43.7528L291.095 48H289.765L287.475 43.7528H288.768ZM295.382 48.1477C294.699 48.1477 294.11 47.9969 293.614 47.6953C293.122 47.3906 292.742 46.9659 292.474 46.4212C292.209 45.8733 292.077 45.2363 292.077 44.5099C292.077 43.7836 292.209 43.1435 292.474 42.5895C292.742 42.0324 293.114 41.5985 293.591 41.2876C294.071 40.9737 294.631 40.8168 295.271 40.8168C295.641 40.8168 296.006 40.8783 296.366 41.0014C296.726 41.1245 297.053 41.3246 297.349 41.6016C297.644 41.8755 297.88 42.2386 298.055 42.6911C298.231 43.1435 298.318 43.7005 298.318 44.3622V44.8239H292.852V43.8821H297.21C297.21 43.482 297.13 43.125 296.97 42.8111C296.813 42.4972 296.589 42.2494 296.296 42.0678C296.007 41.8862 295.665 41.7955 295.271 41.7955C294.838 41.7955 294.462 41.9032 294.145 42.1186C293.831 42.331 293.59 42.608 293.42 42.9496C293.251 43.2912 293.166 43.6574 293.166 44.0483V44.6761C293.166 45.2116 293.259 45.6656 293.443 46.038C293.631 46.4073 293.891 46.6889 294.224 46.8828C294.556 47.0736 294.942 47.169 295.382 47.169C295.669 47.169 295.927 47.129 296.158 47.049C296.392 46.9659 296.593 46.8428 296.763 46.6797C296.932 46.5135 297.063 46.3073 297.155 46.0611L298.208 46.3565C298.097 46.7135 297.911 47.0275 297.649 47.2983C297.387 47.5661 297.064 47.7753 296.68 47.9261C296.295 48.0739 295.862 48.1477 295.382 48.1477ZM301.065 38.5455V48H299.976V38.5455H301.065ZM306.034 48.1477C305.35 48.1477 304.761 47.9969 304.266 47.6953C303.773 47.3906 303.393 46.9659 303.125 46.4212C302.861 45.8733 302.728 45.2363 302.728 44.5099C302.728 43.7836 302.861 43.1435 303.125 42.5895C303.393 42.0324 303.765 41.5985 304.242 41.2876C304.723 40.9737 305.283 40.8168 305.923 40.8168C306.292 40.8168 306.657 40.8783 307.017 41.0014C307.377 41.1245 307.705 41.3246 308 41.6016C308.296 41.8755 308.531 42.2386 308.707 42.6911C308.882 43.1435 308.97 43.7005 308.97 44.3622V44.8239H303.504V43.8821H307.862C307.862 43.482 307.782 43.125 307.622 42.8111C307.465 42.4972 307.24 42.2494 306.948 42.0678C306.658 41.8862 306.317 41.7955 305.923 41.7955C305.489 41.7955 305.113 41.9032 304.796 42.1186C304.483 42.331 304.241 42.608 304.072 42.9496C303.902 43.2912 303.818 43.6574 303.818 44.0483V44.6761C303.818 45.2116 303.91 45.6656 304.095 46.038C304.282 46.4073 304.543 46.6889 304.875 46.8828C305.207 47.0736 305.594 47.169 306.034 47.169C306.32 47.169 306.578 47.129 306.809 47.049C307.043 46.9659 307.245 46.8428 307.414 46.6797C307.583 46.5135 307.714 46.3073 307.806 46.0611L308.859 46.3565C308.748 46.7135 308.562 47.0275 308.3 47.2983C308.039 47.5661 307.716 47.7753 307.331 47.9261C306.946 48.0739 306.514 48.1477 306.034 48.1477ZM312.714 48.1662C312.264 48.1662 311.857 48.0816 311.49 47.9123C311.124 47.7399 310.833 47.4922 310.618 47.169C310.402 46.8428 310.295 46.4489 310.295 45.9872C310.295 45.581 310.375 45.2517 310.535 44.9993C310.695 44.7438 310.909 44.5438 311.176 44.3991C311.444 44.2545 311.74 44.1468 312.063 44.076C312.389 44.0021 312.717 43.9437 313.046 43.9006C313.477 43.8452 313.826 43.8036 314.094 43.7759C314.365 43.7451 314.562 43.6944 314.685 43.6236C314.811 43.5528 314.874 43.4297 314.874 43.2543V43.2173C314.874 42.7618 314.75 42.4079 314.5 42.1555C314.254 41.9032 313.88 41.777 313.378 41.777C312.858 41.777 312.451 41.8909 312.155 42.1186C311.86 42.3464 311.652 42.5895 311.532 42.848L310.498 42.4787C310.682 42.0478 310.929 41.7124 311.236 41.4723C311.547 41.2292 311.886 41.0599 312.252 40.9645C312.621 40.866 312.985 40.8168 313.342 40.8168C313.569 40.8168 313.831 40.8445 314.126 40.8999C314.425 40.9522 314.713 41.0614 314.99 41.2276C315.27 41.3938 315.502 41.6446 315.687 41.9801C315.871 42.3156 315.964 42.7649 315.964 43.3281V48H314.874V47.0398H314.819C314.745 47.1937 314.622 47.3583 314.449 47.5337C314.277 47.7092 314.048 47.8584 313.762 47.9815C313.475 48.1046 313.126 48.1662 312.714 48.1662ZM312.88 47.1875C313.311 47.1875 313.674 47.1029 313.969 46.9336C314.268 46.7643 314.493 46.5458 314.643 46.2781C314.797 46.0103 314.874 45.7287 314.874 45.4332V44.4361C314.828 44.4915 314.726 44.5423 314.57 44.5884C314.416 44.6315 314.237 44.67 314.034 44.7038C313.834 44.7346 313.639 44.7623 313.448 44.7869C313.26 44.8085 313.108 44.8269 312.991 44.8423C312.708 44.8793 312.443 44.9393 312.197 45.0224C311.954 45.1024 311.757 45.224 311.606 45.3871C311.458 45.5471 311.384 45.7656 311.384 46.0426C311.384 46.4212 311.524 46.7074 311.804 46.9013C312.087 47.0921 312.446 47.1875 312.88 47.1875ZM322.975 42.4972L321.996 42.7741C321.935 42.611 321.844 42.4525 321.724 42.2987C321.607 42.1417 321.447 42.0124 321.244 41.9109C321.041 41.8093 320.781 41.7585 320.464 41.7585C320.03 41.7585 319.668 41.8585 319.379 42.0586C319.093 42.2556 318.949 42.5064 318.949 42.8111C318.949 43.0819 319.048 43.2958 319.245 43.4528C319.442 43.6097 319.75 43.7405 320.168 43.8452L321.221 44.1037C321.855 44.2576 322.327 44.493 322.638 44.81C322.949 45.1239 323.104 45.5286 323.104 46.0241C323.104 46.4304 322.987 46.7936 322.753 47.1136C322.523 47.4337 322.199 47.6861 321.784 47.8707C321.368 48.0554 320.885 48.1477 320.334 48.1477C319.611 48.1477 319.012 47.9908 318.539 47.6768C318.065 47.3629 317.765 46.9044 317.638 46.3011L318.672 46.0426C318.771 46.4242 318.957 46.7105 319.231 46.9013C319.508 47.0921 319.87 47.1875 320.316 47.1875C320.824 47.1875 321.227 47.0798 321.525 46.8643C321.827 46.6458 321.978 46.3842 321.978 46.0795C321.978 45.8333 321.892 45.6271 321.719 45.4609C321.547 45.2917 321.282 45.1655 320.925 45.0824L319.743 44.8054C319.094 44.6515 318.617 44.413 318.312 44.0898C318.011 43.7636 317.86 43.3558 317.86 42.8665C317.86 42.4664 317.972 42.1125 318.197 41.8047C318.425 41.4969 318.734 41.2553 319.125 41.0799C319.519 40.9045 319.965 40.8168 320.464 40.8168C321.165 40.8168 321.716 40.9706 322.116 41.2784C322.519 41.5862 322.806 41.9924 322.975 42.4972ZM327.717 48.1477C327.034 48.1477 326.445 47.9969 325.949 47.6953C325.457 47.3906 325.077 46.9659 324.809 46.4212C324.544 45.8733 324.412 45.2363 324.412 44.5099C324.412 43.7836 324.544 43.1435 324.809 42.5895C325.077 42.0324 325.449 41.5985 325.926 41.2876C326.406 40.9737 326.966 40.8168 327.606 40.8168C327.976 40.8168 328.34 40.8783 328.701 41.0014C329.061 41.1245 329.388 41.3246 329.684 41.6016C329.979 41.8755 330.215 42.2386 330.39 42.6911C330.566 43.1435 330.653 43.7005 330.653 44.3622V44.8239H325.187V43.8821H329.545C329.545 43.482 329.465 43.125 329.305 42.8111C329.148 42.4972 328.924 42.2494 328.631 42.0678C328.342 41.8862 328 41.7955 327.606 41.7955C327.172 41.7955 326.797 41.9032 326.48 42.1186C326.166 42.331 325.925 42.608 325.755 42.9496C325.586 43.2912 325.501 43.6574 325.501 44.0483V44.6761C325.501 45.2116 325.594 45.6656 325.778 46.038C325.966 46.4073 326.226 46.6889 326.559 46.8828C326.891 47.0736 327.277 47.169 327.717 47.169C328.003 47.169 328.262 47.129 328.493 47.049C328.727 46.9659 328.928 46.8428 329.098 46.6797C329.267 46.5135 329.398 46.3073 329.49 46.0611L330.543 46.3565C330.432 46.7135 330.246 47.0275 329.984 47.2983C329.722 47.5661 329.399 47.7753 329.014 47.9261C328.63 48.0739 328.197 48.1477 327.717 48.1477Z" fill="#787878"/>
<g id="hold-button">
<rect id="Rectangle 5" x="218" y="31" width="25" height="25" rx="8.4375" fill="#0226A4" stroke="#1E1E1E" stroke-width="1.6875"/>
<path id="H" d="M226.648 49V39.1818H228.724V43.2328H232.938V39.1818H235.009V49H232.938V44.9442H228.724V49H226.648Z" fill="white"/>
</g>
</g>
<g id="Group 12">
<path id="Interact" d="M252.29 9.54545V19H251.145V9.54545H252.29ZM255.527 14.7344V19H254.438V11.9091H255.49V13.017H255.582C255.749 12.657 256.001 12.3677 256.34 12.1491C256.678 11.9276 257.115 11.8168 257.651 11.8168C258.131 11.8168 258.551 11.9152 258.911 12.1122C259.271 12.3061 259.551 12.6016 259.751 12.9986C259.951 13.3925 260.051 13.8911 260.051 14.4943V19H258.962V14.5682C258.962 14.0111 258.817 13.5772 258.528 13.2663C258.238 12.9524 257.841 12.7955 257.337 12.7955C256.989 12.7955 256.678 12.8709 256.404 13.0217C256.133 13.1725 255.919 13.3925 255.763 13.6818C255.606 13.9711 255.527 14.322 255.527 14.7344ZM265.126 11.9091V12.8324H261.451V11.9091H265.126ZM262.522 10.2102H263.612V16.9688C263.612 17.2765 263.656 17.5073 263.746 17.6612C263.838 17.812 263.955 17.9136 264.096 17.9659C264.241 18.0152 264.393 18.0398 264.553 18.0398C264.673 18.0398 264.772 18.0336 264.849 18.0213C264.926 18.0059 264.987 17.9936 265.034 17.9844L265.255 18.9631C265.181 18.9908 265.078 19.0185 264.946 19.0462C264.814 19.0769 264.646 19.0923 264.443 19.0923C264.135 19.0923 263.833 19.0262 263.538 18.8938C263.245 18.7615 263.002 18.5599 262.808 18.2891C262.618 18.0182 262.522 17.6766 262.522 17.2642V10.2102ZM269.662 19.1477C268.978 19.1477 268.389 18.9969 267.893 18.6953C267.401 18.3906 267.021 17.9659 266.753 17.4212C266.489 16.8733 266.356 16.2363 266.356 15.5099C266.356 14.7836 266.489 14.1435 266.753 13.5895C267.021 13.0324 267.393 12.5985 267.87 12.2876C268.35 11.9737 268.911 11.8168 269.551 11.8168C269.92 11.8168 270.285 11.8783 270.645 12.0014C271.005 12.1245 271.333 12.3246 271.628 12.6016C271.924 12.8755 272.159 13.2386 272.335 13.6911C272.51 14.1435 272.598 14.7005 272.598 15.3622V15.8239H267.132V14.8821H271.49C271.49 14.482 271.41 14.125 271.25 13.8111C271.093 13.4972 270.868 13.2494 270.576 13.0678C270.286 12.8862 269.945 12.7955 269.551 12.7955C269.117 12.7955 268.741 12.9032 268.424 13.1186C268.11 13.331 267.869 13.608 267.7 13.9496C267.53 14.2912 267.446 14.6574 267.446 15.0483V15.6761C267.446 16.2116 267.538 16.6656 267.723 17.038C267.91 17.4073 268.17 17.6889 268.503 17.8828C268.835 18.0736 269.221 18.169 269.662 18.169C269.948 18.169 270.206 18.129 270.437 18.049C270.671 17.9659 270.873 17.8428 271.042 17.6797C271.211 17.5135 271.342 17.3073 271.434 17.0611L272.487 17.3565C272.376 17.7135 272.19 18.0275 271.928 18.2983C271.667 18.5661 271.344 18.7753 270.959 18.9261C270.574 19.0739 270.142 19.1477 269.662 19.1477ZM274.255 19V11.9091H275.308V12.9801H275.381C275.511 12.6293 275.745 12.3446 276.083 12.1261C276.422 11.9076 276.803 11.7983 277.228 11.7983C277.308 11.7983 277.408 11.7998 277.528 11.8029C277.648 11.806 277.739 11.8106 277.8 11.8168V12.9247C277.763 12.9155 277.679 12.9016 277.547 12.8832C277.417 12.8616 277.28 12.8509 277.136 12.8509C276.791 12.8509 276.483 12.9232 276.212 13.0678C275.945 13.2094 275.732 13.4064 275.575 13.6587C275.421 13.908 275.344 14.1927 275.344 14.5128V19H274.255ZM281.179 19.1662C280.729 19.1662 280.321 19.0816 279.955 18.9123C279.589 18.7399 279.298 18.4922 279.083 18.169C278.867 17.8428 278.759 17.4489 278.759 16.9872C278.759 16.581 278.84 16.2517 279 15.9993C279.16 15.7438 279.373 15.5438 279.641 15.3991C279.909 15.2545 280.204 15.1468 280.528 15.076C280.854 15.0021 281.182 14.9437 281.511 14.9006C281.942 14.8452 282.291 14.8036 282.559 14.7759C282.83 14.7451 283.027 14.6944 283.15 14.6236C283.276 14.5528 283.339 14.4297 283.339 14.2543V14.2173C283.339 13.7618 283.214 13.4079 282.965 13.1555C282.719 12.9032 282.345 12.777 281.843 12.777C281.323 12.777 280.915 12.8909 280.62 13.1186C280.324 13.3464 280.117 13.5895 279.997 13.848L278.963 13.4787C279.147 13.0478 279.393 12.7124 279.701 12.4723C280.012 12.2292 280.351 12.0599 280.717 11.9645C281.086 11.866 281.449 11.8168 281.806 11.8168C282.034 11.8168 282.296 11.8445 282.591 11.8999C282.89 11.9522 283.177 12.0614 283.454 12.2276C283.735 12.3938 283.967 12.6446 284.152 12.9801C284.336 13.3156 284.429 13.7649 284.429 14.3281V19H283.339V18.0398H283.284C283.21 18.1937 283.087 18.3583 282.914 18.5337C282.742 18.7092 282.513 18.8584 282.226 18.9815C281.94 19.1046 281.591 19.1662 281.179 19.1662ZM281.345 18.1875C281.776 18.1875 282.139 18.1029 282.434 17.9336C282.733 17.7643 282.957 17.5458 283.108 17.2781C283.262 17.0103 283.339 16.7287 283.339 16.4332V15.4361C283.293 15.4915 283.191 15.5423 283.034 15.5884C282.88 15.6315 282.702 15.67 282.499 15.7038C282.299 15.7346 282.103 15.7623 281.913 15.7869C281.725 15.8085 281.572 15.8269 281.456 15.8423C281.172 15.8793 280.908 15.9393 280.661 16.0224C280.418 16.1024 280.221 16.224 280.071 16.3871C279.923 16.5471 279.849 16.7656 279.849 17.0426C279.849 17.4212 279.989 17.7074 280.269 17.9013C280.552 18.0921 280.911 18.1875 281.345 18.1875ZM289.298 19.1477C288.633 19.1477 288.061 18.9908 287.58 18.6768C287.1 18.3629 286.731 17.9305 286.472 17.3796C286.214 16.8287 286.085 16.1993 286.085 15.4915C286.085 14.7713 286.217 14.1358 286.482 13.5849C286.749 13.0309 287.122 12.5985 287.599 12.2876C288.079 11.9737 288.639 11.8168 289.279 11.8168C289.778 11.8168 290.227 11.9091 290.627 12.0938C291.027 12.2784 291.355 12.5369 291.611 12.8693C291.866 13.2017 292.025 13.5895 292.086 14.0327H290.997C290.914 13.7095 290.729 13.4233 290.443 13.174C290.16 12.9216 289.778 12.7955 289.298 12.7955C288.873 12.7955 288.501 12.9062 288.181 13.1278C287.864 13.3464 287.616 13.6557 287.437 14.0558C287.262 14.4528 287.174 14.919 287.174 15.4545C287.174 16.0024 287.26 16.4794 287.433 16.8857C287.608 17.2919 287.854 17.6074 288.171 17.832C288.491 18.0567 288.867 18.169 289.298 18.169C289.581 18.169 289.838 18.1198 290.069 18.0213C290.3 17.9228 290.495 17.7812 290.655 17.5966C290.815 17.4119 290.929 17.1903 290.997 16.9318H292.086C292.025 17.3504 291.872 17.7274 291.629 18.0629C291.389 18.3952 291.07 18.6599 290.673 18.8569C290.28 19.0508 289.821 19.1477 289.298 19.1477ZM296.763 11.9091V12.8324H293.088V11.9091H296.763ZM294.159 10.2102H295.248V16.9688C295.248 17.2765 295.293 17.5073 295.382 17.6612C295.475 17.812 295.592 17.9136 295.733 17.9659C295.878 18.0152 296.03 18.0398 296.19 18.0398C296.31 18.0398 296.409 18.0336 296.486 18.0213C296.563 18.0059 296.624 17.9936 296.67 17.9844L296.892 18.9631C296.818 18.9908 296.715 19.0185 296.583 19.0462C296.45 19.0769 296.282 19.0923 296.079 19.0923C295.772 19.0923 295.47 19.0262 295.175 18.8938C294.882 18.7615 294.639 18.5599 294.445 18.2891C294.254 18.0182 294.159 17.6766 294.159 17.2642V10.2102Z" fill="#787878"/>
<g id="interact-button">
<rect id="Rectangle 5_2" x="218" y="1" width="25" height="25" rx="8.4375" fill="#0226A4" stroke="#1E1E1E" stroke-width="1.6875"/>
<path id="J" d="M231.766 9.18182H233.818V16.0277C233.818 16.6605 233.675 17.2102 233.391 17.6768C233.11 18.1435 232.718 18.503 232.216 18.7555C231.715 19.008 231.131 19.1342 230.467 19.1342C229.875 19.1342 229.338 19.0304 228.856 18.8226C228.376 18.6117 227.996 18.2921 227.715 17.8638C227.434 17.4324 227.295 16.8906 227.298 16.2386H229.364C229.37 16.4975 229.423 16.7196 229.522 16.905C229.624 17.0872 229.763 17.2278 229.939 17.3269C230.118 17.4228 230.329 17.4707 230.572 17.4707C230.828 17.4707 231.043 17.4164 231.219 17.3077C231.398 17.1958 231.534 17.0328 231.627 16.8187C231.719 16.6046 231.766 16.3409 231.766 16.0277V9.18182Z" fill="white"/>
</g>
</g>
</g>
<g id="move-legend">
<g id="W Button">
<rect id="Rectangle 5_3" x="34" y="1" width="25" height="25" rx="8.4375" fill="#0226A4" stroke="#1E1E1E" stroke-width="1.6875"/>
<path id="W" d="M42.5009 19L39.6916 9.18182H41.9592L43.5843 16.0037H43.6658L45.4588 9.18182H47.4004L49.1886 16.0181H49.2749L50.9 9.18182H53.1676L50.3583 19H48.3352L46.4656 12.5808H46.3888L44.524 19H42.5009Z" fill="white"/>
</g>
<g id="A Button">
<rect id="Rectangle 5_4" x="4" y="31" width="25" height="25" rx="8.4375" fill="#0226A4" stroke="#1E1E1E" stroke-width="1.6875"/>
<path id="A" d="M14.1543 48.8913H11.9298L15.3192 39.0731H17.9943L21.3789 48.8913H19.1545L16.6951 41.3167H16.6184L14.1543 48.8913ZM14.0152 45.0321H19.2695V46.6525H14.0152V45.0321Z" fill="white"/>
</g>
<g id="S Button">
<rect id="Rectangle 5_5" x="34" y="31" width="25" height="25" rx="8.4375" fill="#0226A4" stroke="#1E1E1E" stroke-width="1.6875"/>
<path id="S" d="M48.1795 41.4743C48.1412 41.0875 47.9766 40.7871 47.6857 40.573C47.3949 40.3588 47.0002 40.2518 46.5016 40.2518C46.1628 40.2518 45.8768 40.2997 45.6435 40.3956C45.4102 40.4883 45.2312 40.6177 45.1065 40.7839C44.9851 40.9501 44.9244 41.1387 44.9244 41.3496C44.918 41.5254 44.9547 41.6788 45.0346 41.8098C45.1177 41.9409 45.2312 42.0543 45.375 42.1502C45.5188 42.2429 45.685 42.3244 45.8736 42.3947C46.0621 42.4618 46.2635 42.5194 46.4776 42.5673L47.3597 42.7782C47.788 42.8741 48.1811 43.002 48.5391 43.1618C48.897 43.3216 49.207 43.5181 49.4691 43.7514C49.7312 43.9847 49.9341 44.2596 50.0779 44.576C50.225 44.8924 50.3001 45.2551 50.3033 45.6642C50.3001 46.2651 50.1467 46.786 49.843 47.2271C49.5426 47.665 49.108 48.0053 48.5391 48.2482C47.9734 48.4879 47.291 48.6078 46.492 48.6078C45.6994 48.6078 45.0091 48.4863 44.421 48.2434C43.8361 48.0005 43.3791 47.641 43.0499 47.1648C42.7239 46.6854 42.5529 46.0925 42.5369 45.3862H44.5456C44.568 45.7154 44.6623 45.9902 44.8285 46.2108C44.9979 46.4281 45.2232 46.5927 45.5044 46.7045C45.7889 46.8132 46.1101 46.8675 46.468 46.8675C46.8196 46.8675 47.1248 46.8164 47.3837 46.7141C47.6458 46.6119 47.8487 46.4696 47.9925 46.2875C48.1364 46.1053 48.2083 45.896 48.2083 45.6594C48.2083 45.4389 48.1428 45.2536 48.0117 45.1033C47.8839 44.9531 47.6953 44.8253 47.446 44.7198C47.1999 44.6143 46.8979 44.5185 46.54 44.4322L45.4709 44.1637C44.6431 43.9624 43.9895 43.6475 43.5101 43.2193C43.0307 42.791 42.7926 42.2141 42.7958 41.4886C42.7926 40.8942 42.9508 40.3748 43.2704 39.9306C43.5932 39.4863 44.0359 39.1396 44.5984 38.8903C45.1609 38.641 45.8001 38.5163 46.516 38.5163C47.2447 38.5163 47.8807 38.641 48.424 38.8903C48.9705 39.1396 49.3956 39.4863 49.6992 39.9306C50.0028 40.3748 50.1594 40.8894 50.169 41.4743H48.1795Z" fill="white"/>
</g>
<g id="D Button">
<rect id="Rectangle 5_6" x="64" y="31" width="25" height="25" rx="8.4375" fill="#0226A4" stroke="#1E1E1E" stroke-width="1.6875"/>
<path id="D" d="M75.8625 48.8913H72.382V39.0731H75.8912C76.8788 39.0731 77.729 39.2697 78.4417 39.6628C79.1544 40.0527 79.7025 40.6136 80.086 41.3455C80.4727 42.0774 80.6661 42.9531 80.6661 43.9726C80.6661 44.9954 80.4727 45.8743 80.086 46.6094C79.7025 47.3444 79.1512 47.9085 78.4321 48.3016C77.7162 48.6948 76.8596 48.8913 75.8625 48.8913ZM74.4578 47.1127H75.7762C76.3898 47.1127 76.906 47.0041 77.3247 46.7867C77.7465 46.5662 78.0629 46.2258 78.2739 45.7656C78.488 45.3022 78.5951 44.7045 78.5951 43.9726C78.5951 43.2471 78.488 42.6543 78.2739 42.194C78.0629 41.7338 77.7481 41.395 77.3295 41.1777C76.9108 40.9604 76.3946 40.8517 75.781 40.8517H74.4578V47.1127Z" fill="white"/>
</g>
<path id="Move" d="M31.3363 63.5455H32.7028L35.9158 71.3935H36.0266L39.2397 63.5455H40.6062V73H39.5352V65.8168H39.4428L36.4883 73H35.4542L32.4996 65.8168H32.4073V73H31.3363V63.5455ZM45.6347 73.1477C44.9945 73.1477 44.4329 72.9954 43.9497 72.6907C43.4695 72.386 43.0941 71.9598 42.8232 71.4119C42.5555 70.8641 42.4216 70.224 42.4216 69.4915C42.4216 68.7528 42.5555 68.1081 42.8232 67.5572C43.0941 67.0063 43.4695 66.5785 43.9497 66.2738C44.4329 65.9691 44.9945 65.8168 45.6347 65.8168C46.2748 65.8168 46.835 65.9691 47.3151 66.2738C47.7983 66.5785 48.1737 67.0063 48.4415 67.5572C48.7123 68.1081 48.8477 68.7528 48.8477 69.4915C48.8477 70.224 48.7123 70.8641 48.4415 71.4119C48.1737 71.9598 47.7983 72.386 47.3151 72.6907C46.835 72.9954 46.2748 73.1477 45.6347 73.1477ZM45.6347 72.169C46.1209 72.169 46.521 72.0444 46.835 71.7951C47.1489 71.5458 47.3812 71.218 47.532 70.8118C47.6829 70.4055 47.7583 69.9654 47.7583 69.4915C47.7583 69.0175 47.6829 68.5759 47.532 68.1665C47.3812 67.7572 47.1489 67.4264 46.835 67.174C46.521 66.9216 46.1209 66.7955 45.6347 66.7955C45.1484 66.7955 44.7483 66.9216 44.4344 67.174C44.1205 67.4264 43.8881 67.7572 43.7373 68.1665C43.5865 68.5759 43.5111 69.0175 43.5111 69.4915C43.5111 69.9654 43.5865 70.4055 43.7373 70.8118C43.8881 71.218 44.1205 71.5458 44.4344 71.7951C44.7483 72.0444 45.1484 72.169 45.6347 72.169ZM56.0552 65.9091L53.4331 73H52.3251L49.7029 65.9091H50.8848L52.8422 71.5597H52.916L54.8734 65.9091H56.0552ZM60.2124 73.1477C59.5291 73.1477 58.9397 72.9969 58.4442 72.6953C57.9518 72.3906 57.5717 71.9659 57.304 71.4212C57.0393 70.8733 56.907 70.2363 56.907 69.5099C56.907 68.7836 57.0393 68.1435 57.304 67.5895C57.5717 67.0324 57.9441 66.5985 58.4212 66.2876C58.9013 65.9737 59.4614 65.8168 60.1016 65.8168C60.4709 65.8168 60.8356 65.8783 61.1957 66.0014C61.5558 66.1245 61.8835 66.3246 62.179 66.6016C62.4744 66.8755 62.7099 67.2386 62.8853 67.6911C63.0607 68.1435 63.1484 68.7005 63.1484 69.3622V69.8239H57.6825V68.8821H62.0405C62.0405 68.482 61.9605 68.125 61.8004 67.8111C61.6435 67.4972 61.4188 67.2494 61.1264 67.0678C60.8371 66.8862 60.4955 66.7955 60.1016 66.7955C59.6676 66.7955 59.2921 66.9032 58.9751 67.1186C58.6612 67.331 58.4196 67.608 58.2504 67.9496C58.0811 68.2912 57.9964 68.6574 57.9964 69.0483V69.6761C57.9964 70.2116 58.0888 70.6656 58.2734 71.038C58.4612 71.4073 58.7212 71.6889 59.0536 71.8828C59.386 72.0736 59.7723 72.169 60.2124 72.169C60.4986 72.169 60.7571 72.129 60.9879 72.049C61.2218 71.9659 61.4234 71.8428 61.5927 71.6797C61.762 71.5135 61.8928 71.3073 61.9851 71.0611L63.0376 71.3565C62.9268 71.7135 62.7406 72.0275 62.479 72.2983C62.2174 72.5661 61.8943 72.7753 61.5096 72.9261C61.1249 73.0739 60.6925 73.1477 60.2124 73.1477Z" fill="#787878"/>
</g>
<g id="camera-legend">
<g id="Arrow Button">
<rect id="Rectangle 5_7" x="142" y="1" width="25" height="25" rx="8.4375" fill="#0226A4" stroke="#1E1E1E" stroke-width="1.6875"/>
<path id="Arrow 1" d="M153.656 18.9348C153.656 19.4008 154.034 19.7785 154.5 19.7785C154.966 19.7785 155.344 19.4008 155.344 18.9348L153.656 18.9348ZM155.097 7.4686C154.767 7.13909 154.233 7.13909 153.903 7.4686L148.534 12.8382C148.204 13.1677 148.204 13.7019 148.534 14.0314C148.863 14.3609 149.398 14.3609 149.727 14.0314L154.5 9.25846L159.273 14.0314C159.602 14.3609 160.137 14.3609 160.466 14.0314C160.796 13.7019 160.796 13.1677 160.466 12.8382L155.097 7.4686ZM155.344 18.9348L155.344 8.06522L153.656 8.06522L153.656 18.9348L155.344 18.9348Z" fill="white"/>
</g>
<g id="Arrow Button_2">
<rect id="Rectangle 5_8" x="167" y="56" width="25" height="25" rx="8.4375" transform="rotate(-180 167 56)" fill="#0226A4" stroke="#1E1E1E" stroke-width="1.6875"/>
<path id="Arrow 1_2" d="M155.344 38.0652C155.344 37.5992 154.966 37.2215 154.5 37.2215C154.034 37.2215 153.656 37.5992 153.656 38.0652L155.344 38.0652ZM153.903 49.5314C154.233 49.8609 154.767 49.8609 155.097 49.5314L160.466 44.1618C160.796 43.8323 160.796 43.2981 160.466 42.9686C160.137 42.6391 159.602 42.6391 159.273 42.9686L154.5 47.7415L149.727 42.9686C149.398 42.6391 148.863 42.6391 148.534 42.9686C148.204 43.2981 148.204 43.8323 148.534 44.1618L153.903 49.5314ZM153.656 38.0652L153.656 48.9348L155.344 48.9348L155.344 38.0652L153.656 38.0652Z" fill="white"/>
</g>
<g id="Arrow Button_3">
<rect id="Rectangle 5_9" x="197" y="31" width="25" height="25" rx="8.4375" transform="rotate(90 197 31)" fill="#0226A4" stroke="#1E1E1E" stroke-width="1.6875"/>
<path id="Arrow 1_3" d="M179.065 42.6562C178.599 42.6563 178.221 43.034 178.221 43.5C178.221 43.966 178.599 44.3438 179.065 44.3438L179.065 42.6562ZM190.531 44.0966C190.861 43.7671 190.861 43.2329 190.531 42.9034L185.162 37.5338C184.832 37.2043 184.298 37.2043 183.969 37.5338C183.639 37.8633 183.639 38.3975 183.969 38.727L188.742 43.5L183.969 48.273C183.639 48.6025 183.639 49.1367 183.969 49.4662C184.298 49.7957 184.832 49.7957 185.162 49.4662L190.531 44.0966ZM179.065 44.3438L189.935 44.3437L189.935 42.6562L179.065 42.6562L179.065 44.3438Z" fill="white"/>
</g>
<g id="Arrow Button_4">
<rect id="Rectangle 5_10" x="112" y="56" width="25" height="25" rx="8.4375" transform="rotate(-90 112 56)" fill="#0226A4" stroke="#1E1E1E" stroke-width="1.6875"/>
<path id="Arrow 1_4" d="M129.935 44.3438C130.401 44.3437 130.779 43.966 130.779 43.5C130.779 43.034 130.401 42.6562 129.935 42.6562L129.935 44.3438ZM118.469 42.9034C118.139 43.2329 118.139 43.7671 118.469 44.0966L123.838 49.4662C124.168 49.7957 124.702 49.7957 125.031 49.4662C125.361 49.1367 125.361 48.6025 125.031 48.273L120.258 43.5L125.031 38.727C125.361 38.3975 125.361 37.8633 125.031 37.5338C124.702 37.2043 124.168 37.2043 123.838 37.5338L118.469 42.9034ZM129.935 42.6562L119.065 42.6563L119.065 44.3438L129.935 44.3438L129.935 42.6562Z" fill="white"/>
</g>
<path id="Camera" d="M139.848 66.5H138.703C138.635 66.1707 138.516 65.8814 138.347 65.6321C138.181 65.3828 137.978 65.1735 137.738 65.0043C137.501 64.8319 137.238 64.7027 136.948 64.6165C136.659 64.5303 136.358 64.4872 136.044 64.4872C135.471 64.4872 134.953 64.6319 134.488 64.9212C134.026 65.2105 133.658 65.6367 133.384 66.1999C133.114 66.7631 132.978 67.4541 132.978 68.2727C132.978 69.0914 133.114 69.7823 133.384 70.3455C133.658 70.9087 134.026 71.335 134.488 71.6243C134.953 71.9136 135.471 72.0582 136.044 72.0582C136.358 72.0582 136.659 72.0152 136.948 71.929C137.238 71.8428 137.501 71.7151 137.738 71.5458C137.978 71.3735 138.181 71.1626 138.347 70.9134C138.516 70.661 138.635 70.3717 138.703 70.0455H139.848C139.761 70.5286 139.604 70.9611 139.377 71.3427C139.149 71.7243 138.866 72.049 138.527 72.3168C138.189 72.5814 137.809 72.783 137.387 72.9215C136.968 73.06 136.521 73.1293 136.044 73.1293C135.237 73.1293 134.52 72.9323 133.892 72.5384C133.264 72.1444 132.771 71.5843 132.41 70.858C132.05 70.1316 131.87 69.2699 131.87 68.2727C131.87 67.2756 132.05 66.4138 132.41 65.6875C132.771 64.9612 133.264 64.401 133.892 64.0071C134.52 63.6132 135.237 63.4162 136.044 63.4162C136.521 63.4162 136.968 63.4854 137.387 63.6239C137.809 63.7624 138.189 63.9656 138.527 64.2333C138.866 64.498 139.149 64.8211 139.377 65.2028C139.604 65.5813 139.761 66.0137 139.848 66.5ZM143.637 73.1662C143.187 73.1662 142.779 73.0816 142.413 72.9123C142.047 72.7399 141.756 72.4922 141.541 72.169C141.325 71.8428 141.218 71.4489 141.218 70.9872C141.218 70.581 141.298 70.2517 141.458 69.9993C141.618 69.7438 141.831 69.5438 142.099 69.3991C142.367 69.2545 142.662 69.1468 142.986 69.076C143.312 69.0021 143.64 68.9437 143.969 68.9006C144.4 68.8452 144.749 68.8036 145.017 68.7759C145.288 68.7451 145.485 68.6944 145.608 68.6236C145.734 68.5528 145.797 68.4297 145.797 68.2543V68.2173C145.797 67.7618 145.672 67.4079 145.423 67.1555C145.177 66.9032 144.803 66.777 144.301 66.777C143.781 66.777 143.373 66.8909 143.078 67.1186C142.782 67.3464 142.575 67.5895 142.455 67.848L141.421 67.4787C141.605 67.0478 141.852 66.7124 142.159 66.4723C142.47 66.2292 142.809 66.0599 143.175 65.9645C143.544 65.866 143.907 65.8168 144.264 65.8168C144.492 65.8168 144.754 65.8445 145.049 65.8999C145.348 65.9522 145.635 66.0614 145.912 66.2276C146.193 66.3938 146.425 66.6446 146.61 66.9801C146.794 67.3156 146.887 67.7649 146.887 68.3281V73H145.797V72.0398H145.742C145.668 72.1937 145.545 72.3583 145.372 72.5337C145.2 72.7092 144.971 72.8584 144.684 72.9815C144.398 73.1046 144.049 73.1662 143.637 73.1662ZM143.803 72.1875C144.234 72.1875 144.597 72.1029 144.892 71.9336C145.191 71.7643 145.415 71.5458 145.566 71.2781C145.72 71.0103 145.797 70.7287 145.797 70.4332V69.4361C145.751 69.4915 145.649 69.5423 145.492 69.5884C145.338 69.6315 145.16 69.67 144.957 69.7038C144.757 69.7346 144.561 69.7623 144.371 69.7869C144.183 69.8085 144.03 69.8269 143.914 69.8423C143.63 69.8793 143.366 69.9393 143.119 70.0224C142.876 70.1024 142.679 70.224 142.529 70.3871C142.381 70.5471 142.307 70.7656 142.307 71.0426C142.307 71.4212 142.447 71.7074 142.727 71.9013C143.01 72.0921 143.369 72.1875 143.803 72.1875ZM148.875 73V65.9091H149.928V67.017H150.02C150.168 66.6385 150.406 66.3446 150.736 66.1353C151.065 65.9229 151.46 65.8168 151.922 65.8168C152.39 65.8168 152.779 65.9229 153.09 66.1353C153.404 66.3446 153.649 66.6385 153.824 67.017H153.898C154.079 66.6508 154.352 66.36 154.715 66.1445C155.078 65.926 155.514 65.8168 156.021 65.8168C156.655 65.8168 157.174 66.0153 157.577 66.4123C157.98 66.8062 158.182 67.4202 158.182 68.2543V73H157.092V68.2543C157.092 67.7311 156.949 67.3571 156.663 67.1325C156.377 66.9078 156.04 66.7955 155.652 66.7955C155.153 66.7955 154.767 66.9463 154.493 67.2479C154.219 67.5464 154.082 67.925 154.082 68.3835V73H152.975V68.1435C152.975 67.7403 152.844 67.4156 152.582 67.1694C152.321 66.9201 151.984 66.7955 151.571 66.7955C151.288 66.7955 151.023 66.8709 150.777 67.0217C150.534 67.1725 150.337 67.3817 150.186 67.6495C150.038 67.9142 149.965 68.2204 149.965 68.5682V73H148.875ZM163.147 73.1477C162.464 73.1477 161.874 72.9969 161.379 72.6953C160.886 72.3906 160.506 71.9659 160.239 71.4212C159.974 70.8733 159.842 70.2363 159.842 69.5099C159.842 68.7836 159.974 68.1435 160.239 67.5895C160.506 67.0324 160.879 66.5985 161.356 66.2876C161.836 65.9737 162.396 65.8168 163.036 65.8168C163.405 65.8168 163.77 65.8783 164.13 66.0014C164.49 66.1245 164.818 66.3246 165.114 66.6016C165.409 66.8755 165.644 67.2386 165.82 67.6911C165.995 68.1435 166.083 68.7005 166.083 69.3622V69.8239H160.617V68.8821H164.975C164.975 68.482 164.895 68.125 164.735 67.8111C164.578 67.4972 164.353 67.2494 164.061 67.0678C163.772 66.8862 163.43 66.7955 163.036 66.7955C162.602 66.7955 162.227 66.9032 161.91 67.1186C161.596 67.331 161.354 67.608 161.185 67.9496C161.016 68.2912 160.931 68.6574 160.931 69.0483V69.6761C160.931 70.2116 161.023 70.6656 161.208 71.038C161.396 71.4073 161.656 71.6889 161.988 71.8828C162.321 72.0736 162.707 72.169 163.147 72.169C163.433 72.169 163.692 72.129 163.922 72.049C164.156 71.9659 164.358 71.8428 164.527 71.6797C164.697 71.5135 164.827 71.3073 164.92 71.0611L165.972 71.3565C165.861 71.7135 165.675 72.0275 165.414 72.2983C165.152 72.5661 164.829 72.7753 164.444 72.9261C164.059 73.0739 163.627 73.1477 163.147 73.1477ZM167.74 73V65.9091H168.793V66.9801H168.867C168.996 66.6293 169.23 66.3446 169.568 66.1261C169.907 65.9076 170.289 65.7983 170.713 65.7983C170.793 65.7983 170.893 65.7998 171.013 65.8029C171.133 65.806 171.224 65.8106 171.286 65.8168V66.9247C171.249 66.9155 171.164 66.9016 171.032 66.8832C170.903 66.8616 170.766 66.8509 170.621 66.8509C170.276 66.8509 169.969 66.9232 169.698 67.0678C169.43 67.2094 169.218 67.4064 169.061 67.6587C168.907 67.908 168.83 68.1927 168.83 68.5128V73H167.74ZM174.664 73.1662C174.215 73.1662 173.807 73.0816 173.441 72.9123C173.074 72.7399 172.783 72.4922 172.568 72.169C172.353 71.8428 172.245 71.4489 172.245 70.9872C172.245 70.581 172.325 70.2517 172.485 69.9993C172.645 69.7438 172.859 69.5438 173.127 69.3991C173.394 69.2545 173.69 69.1468 174.013 69.076C174.339 69.0021 174.667 68.9437 174.996 68.9006C175.427 68.8452 175.776 68.8036 176.044 68.7759C176.315 68.7451 176.512 68.6944 176.635 68.6236C176.761 68.5528 176.824 68.4297 176.824 68.2543V68.2173C176.824 67.7618 176.7 67.4079 176.45 67.1555C176.204 66.9032 175.83 66.777 175.329 66.777C174.809 66.777 174.401 66.8909 174.105 67.1186C173.81 67.3464 173.602 67.5895 173.482 67.848L172.448 67.4787C172.633 67.0478 172.879 66.7124 173.187 66.4723C173.497 66.2292 173.836 66.0599 174.202 65.9645C174.572 65.866 174.935 65.8168 175.292 65.8168C175.519 65.8168 175.781 65.8445 176.077 65.8999C176.375 65.9522 176.663 66.0614 176.94 66.2276C177.22 66.3938 177.452 66.6446 177.637 66.9801C177.822 67.3156 177.914 67.7649 177.914 68.3281V73H176.824V72.0398H176.769C176.695 72.1937 176.572 72.3583 176.4 72.5337C176.227 72.7092 175.998 72.8584 175.712 72.9815C175.426 73.1046 175.076 73.1662 174.664 73.1662ZM174.83 72.1875C175.261 72.1875 175.624 72.1029 175.92 71.9336C176.218 71.7643 176.443 71.5458 176.594 71.2781C176.747 71.0103 176.824 70.7287 176.824 70.4332V69.4361C176.778 69.4915 176.677 69.5423 176.52 69.5884C176.366 69.6315 176.187 69.67 175.984 69.7038C175.784 69.7346 175.589 69.7623 175.398 69.7869C175.21 69.8085 175.058 69.8269 174.941 69.8423C174.658 69.8793 174.393 69.9393 174.147 70.0224C173.904 70.1024 173.707 70.224 173.556 70.3871C173.408 70.5471 173.334 70.7656 173.334 71.0426C173.334 71.4212 173.474 71.7074 173.754 71.9013C174.038 72.0921 174.396 72.1875 174.83 72.1875Z" fill="#787878"/>
</g>
</g>
</svg>
