<svg width="265" height="57" viewBox="0 0 265 57" fill="none" xmlns="http://www.w3.org/2000/svg">
<g id="Union">
<mask id="path-1-inside-1_3_738" fill="white">
<path fill-rule="evenodd" clip-rule="evenodd" d="M15 0C6.71573 0 0 6.71573 0 15V42C0 50.2843 6.71573 57 15 57H241C241.325 57 241.648 56.9897 241.967 56.9693H264.062L255.97 42.9534C255.99 42.6382 256 42.3203 256 42V15C256 6.71573 249.284 0 241 0H15Z"/>
</mask>
<path fill-rule="evenodd" clip-rule="evenodd" d="M15 0C6.71573 0 0 6.71573 0 15V42C0 50.2843 6.71573 57 15 57H241C241.325 57 241.648 56.9897 241.967 56.9693H264.062L255.97 42.9534C255.99 42.6382 256 42.3203 256 42V15C256 6.71573 249.284 0 241 0H15Z" fill="white"/>
<path d="M241.967 56.9693V53.9693H241.872L241.777 53.9754L241.967 56.9693ZM264.062 56.9693V59.9693H269.258L266.66 55.4693L264.062 56.9693ZM255.97 42.9534L252.976 42.7656L252.919 43.6693L253.372 44.4534L255.97 42.9534ZM3 15C3 8.37258 8.37258 3 15 3V-3C5.05887 -3 -3 5.05888 -3 15H3ZM3 42V15H-3V42H3ZM15 54C8.37258 54 3 48.6274 3 42H-3C-3 51.9411 5.05888 60 15 60V54ZM241 54H15V60H241V54ZM241.777 53.9754C241.52 53.9917 241.261 54 241 54V60C241.389 60 241.775 59.9876 242.158 59.9632L241.777 53.9754ZM264.062 53.9693H241.967V59.9693H264.062V53.9693ZM253.372 44.4534L261.464 58.4693L266.66 55.4693L258.568 41.4534L253.372 44.4534ZM253 42C253 42.2575 252.992 42.5128 252.976 42.7656L258.964 43.1413C258.988 42.7635 259 42.383 259 42H253ZM253 15V42H259V15H253ZM241 3C247.627 3 253 8.37258 253 15H259C259 5.05888 250.941 -3 241 -3V3ZM15 3H241V-3H15V3Z" fill="#1E1E1E" mask="url(#path-1-inside-1_3_738)"/>
</g>
</svg>
