<svg width="520" height="215" viewBox="0 0 520 215" fill="none" xmlns="http://www.w3.org/2000/svg">
<g id="darkghostymessagebubble">
<mask id="path-1-inside-1_1_181" fill="white">
<path fill-rule="evenodd" clip-rule="evenodd" d="M15 0C6.71573 0 0 6.71572 0 15V200C0 208.284 6.71571 215 15 215H464.287H477H519.713L492 167V15C492 6.71573 485.284 0 477 0H15Z"/>
</mask>
<path d="M519.713 215V220H528.373L524.043 212.5L519.713 215ZM492 167H487V168.34L487.67 169.5L492 167ZM5 15C5 9.47715 9.47715 5 15 5V-5C3.95431 -5 -5 3.9543 -5 15H5ZM5 200V15H-5V200H5ZM15 210C9.47714 210 5 205.523 5 200H-5C-5 211.046 3.95429 220 15 220V210ZM464.287 210H15V220H464.287V210ZM477 210H464.287V220H477V210ZM519.713 210H477V220H519.713V210ZM487.67 169.5L515.383 217.5L524.043 212.5L496.33 164.5L487.67 169.5ZM487 15V167H497V15H487ZM477 5C482.523 5 487 9.47715 487 15H497C497 3.95431 488.046 -5 477 -5V5ZM15 5H477V-5H15V5Z" fill="#D9D9D9" mask="url(#path-1-inside-1_1_181)"/>
</g>
</svg>
