<svg width="52" height="61" viewBox="0 0 52 61" fill="none" xmlns="http://www.w3.org/2000/svg">
<g id="lil ghosty boy">
<path id="Union" fill-rule="evenodd" clip-rule="evenodd" d="M50 20.1364C50 10.1199 41.8243 2 31.7391 2C21.6539 2 13.4783 10.1199 13.4783 20.1364V56.4091C13.4783 57.84 14.6462 59 16.087 59C17.5277 59 18.6957 57.84 18.6957 56.4091C18.6957 54.9782 19.8636 53.8182 21.3044 53.8182C22.7451 53.8182 23.9131 54.9782 23.9131 56.4091C23.9131 57.84 25.081 59 26.5217 59C27.9625 59 29.1304 57.84 29.1304 56.4091C29.1304 54.9782 30.2984 53.8182 31.7391 53.8182C33.1799 53.8182 34.3478 54.9782 34.3478 56.4091C34.3478 57.84 35.5158 59 36.9565 59C38.3973 59 39.5652 57.84 39.5652 56.4091C39.5652 54.9782 40.7332 53.8182 42.1739 53.8182C43.6147 53.8182 44.7826 54.9782 44.7826 56.4091C44.7826 57.84 45.9506 59 47.3913 59C48.8321 59 50 57.84 50 56.4091V20.1364Z" fill="#0226A4"/>
<path id="Union_2" d="M39.5652 56.4091L38.0652 56.4091V56.4091H39.5652ZM31.7391 3.5C41.0056 3.5 48.5 10.958 48.5 20.1364H51.5C51.5 9.28184 42.6431 0.5 31.7391 0.5V3.5ZM14.9783 20.1364C14.9783 10.958 22.4727 3.5 31.7391 3.5V0.5C20.8352 0.5 11.9783 9.28184 11.9783 20.1364H14.9783ZM11.9783 20.1364V56.4091H14.9783V20.1364H11.9783ZM11.9783 56.4091C11.9783 58.6781 13.8275 60.5 16.087 60.5V57.5C15.465 57.5 14.9783 57.0019 14.9783 56.4091H11.9783ZM16.087 60.5C18.3464 60.5 20.1957 58.6781 20.1957 56.4091H17.1957C17.1957 57.0019 16.709 57.5 16.087 57.5V60.5ZM20.1957 56.4091C20.1957 55.8163 20.6823 55.3182 21.3044 55.3182V52.3182C19.0449 52.3182 17.1957 54.1401 17.1957 56.4091H20.1957ZM21.3044 55.3182C21.9264 55.3182 22.4131 55.8163 22.4131 56.4091H25.4131C25.4131 54.1401 23.5638 52.3182 21.3044 52.3182V55.3182ZM22.4131 56.4091C22.4131 58.6781 24.2623 60.5 26.5217 60.5V57.5C25.8997 57.5 25.4131 57.0019 25.4131 56.4091H22.4131ZM26.5217 60.5C28.7812 60.5 30.6304 58.6781 30.6304 56.4091H27.6304C27.6304 57.0019 27.1438 57.5 26.5217 57.5V60.5ZM30.6304 56.4091C30.6304 55.8163 31.1171 55.3182 31.7391 55.3182V52.3182C29.4797 52.3182 27.6304 54.1401 27.6304 56.4091H30.6304ZM31.7391 55.3182C32.3611 55.3182 32.8478 55.8163 32.8478 56.4091H35.8478C35.8478 54.1401 33.9986 52.3182 31.7391 52.3182V55.3182ZM32.8478 56.4091C32.8478 58.6781 34.6971 60.5 36.9565 60.5V57.5C36.3345 57.5 35.8478 57.0019 35.8478 56.4091H32.8478ZM36.9565 60.5C39.216 60.5 41.0652 58.6781 41.0652 56.4091H38.0652C38.0652 57.0019 37.5785 57.5 36.9565 57.5V60.5ZM41.0652 56.4091C41.0652 55.8163 41.5519 55.3182 42.1739 55.3182V52.3182C39.9144 52.3182 38.0652 54.1401 38.0652 56.4091L41.0652 56.4091ZM42.1739 55.3182C42.7959 55.3182 43.2826 55.8163 43.2826 56.4091H46.2826C46.2826 54.1401 44.4334 52.3182 42.1739 52.3182V55.3182ZM43.2826 56.4091C43.2826 58.6781 45.1318 60.5 47.3913 60.5V57.5C46.7693 57.5 46.2826 57.0019 46.2826 56.4091H43.2826ZM47.3913 60.5C49.6508 60.5 51.5 58.6781 51.5 56.4091H48.5C48.5 57.0019 48.0133 57.5 47.3913 57.5V60.5ZM51.5 56.4091V20.1364H48.5V56.4091H51.5Z" fill="#1E1E1E"/>
<ellipse id="Ellipse 9" cx="5.65217" cy="23.7636" rx="3.65217" ry="3.62727" stroke="#1E1E1E" stroke-width="3"/>
<ellipse id="Ellipse 10" cx="24.9565" cy="20.1364" rx="3.65217" ry="3.62727" stroke="#1E1E1E" stroke-width="3"/>
<path id="Vector 1" d="M18.6957 34.9045C27.3044 38.5318 37.4783 34.9045 39.0435 24.2818" stroke="#1E1E1E" stroke-width="3"/>
</g>
</svg>
