<svg width="96" height="114" viewBox="0 0 96 114" fill="none" xmlns="http://www.w3.org/2000/svg">
<g id="lil ghosty boy">
<path id="Union" fill-rule="evenodd" clip-rule="evenodd" d="M94 37C94 17.67 78.33 2 59 2C39.67 2 24 17.67 24 37V107C24 109.761 26.2386 112 29 112C31.7614 112 34 109.761 34 107C34 104.239 36.2386 102 39 102C41.7614 102 44 104.239 44 107C44 109.761 46.2386 112 49 112C51.7614 112 54 109.761 54 107C54 104.239 56.2386 102 59 102C61.7614 102 64 104.239 64 107C64 109.761 66.2386 112 69 112C71.7614 112 74 109.761 74 107C74 104.239 76.2386 102 79 102C81.7614 102 84 104.239 84 107C84 109.761 86.2386 112 89 112C91.7614 112 94 109.761 94 107V37Z" fill="#0226A4"/>
<path id="Union_2" d="M59 3.5C77.5015 3.5 92.5 18.4985 92.5 37H95.5C95.5 16.8416 79.1584 0.5 59 0.5V3.5ZM25.5 37C25.5 18.4985 40.4985 3.5 59 3.5V0.5C38.8416 0.5 22.5 16.8416 22.5 37H25.5ZM22.5 37V107H25.5V37H22.5ZM22.5 107C22.5 110.59 25.4101 113.5 29 113.5V110.5C27.067 110.5 25.5 108.933 25.5 107H22.5ZM29 113.5C32.5899 113.5 35.5 110.59 35.5 107H32.5C32.5 108.933 30.933 110.5 29 110.5V113.5ZM35.5 107C35.5 105.067 37.067 103.5 39 103.5V100.5C35.4101 100.5 32.5 103.41 32.5 107H35.5ZM39 103.5C40.933 103.5 42.5 105.067 42.5 107H45.5C45.5 103.41 42.5899 100.5 39 100.5V103.5ZM42.5 107C42.5 110.59 45.4101 113.5 49 113.5V110.5C47.067 110.5 45.5 108.933 45.5 107H42.5ZM49 113.5C52.5899 113.5 55.5 110.59 55.5 107H52.5C52.5 108.933 50.933 110.5 49 110.5V113.5ZM55.5 107C55.5 105.067 57.067 103.5 59 103.5V100.5C55.4101 100.5 52.5 103.41 52.5 107H55.5ZM59 103.5C60.933 103.5 62.5 105.067 62.5 107H65.5C65.5 103.41 62.5899 100.5 59 100.5V103.5ZM62.5 107C62.5 110.59 65.4101 113.5 69 113.5V110.5C67.067 110.5 65.5 108.933 65.5 107H62.5ZM69 113.5C72.5899 113.5 75.5 110.59 75.5 107H72.5C72.5 108.933 70.933 110.5 69 110.5V113.5ZM75.5 107C75.5 105.067 77.067 103.5 79 103.5V100.5C75.4101 100.5 72.5 103.41 72.5 107H75.5ZM79 103.5C80.933 103.5 82.5 105.067 82.5 107H85.5C85.5 103.41 82.5899 100.5 79 100.5V103.5ZM82.5 107C82.5 110.59 85.4101 113.5 89 113.5V110.5C87.067 110.5 85.5 108.933 85.5 107H82.5ZM89 113.5C92.5898 113.5 95.5 110.59 95.5 107H92.5C92.5 108.933 90.933 110.5 89 110.5V113.5ZM95.5 107V37H92.5V107H95.5Z" fill="#D9D9D9"/>
<circle id="Ellipse 9" cx="9" cy="44" r="7" stroke="#D9D9D9" stroke-width="3"/>
<circle id="Ellipse 10" cx="46" cy="37" r="7" stroke="#D9D9D9" stroke-width="3"/>
<path id="Vector 1" d="M34 65.5C50.5 72.5 70 65.5 73 45" stroke="#D9D9D9" stroke-width="3"/>
</g>
</svg>
