<svg width="292" height="62" viewBox="0 0 292 62" fill="none" xmlns="http://www.w3.org/2000/svg">
<rect width="292" height="62" rx="15" fill="#1E1E1E"/>
<path d="M44.196 40V22.5455H56.1108V25.9716H48.4148V29.5511H55.3523V32.9858H48.4148V40H44.196ZM58.2351 40V26.9091H62.4027V40H58.2351ZM60.3232 25.3835C59.7379 25.3835 59.2351 25.1903 58.8146 24.804C58.3942 24.4119 58.1839 23.9403 58.1839 23.3892C58.1839 22.8437 58.3942 22.3778 58.8146 21.9915C59.2351 21.5994 59.7379 21.4034 60.3232 21.4034C60.9141 21.4034 61.4169 21.5994 61.8317 21.9915C62.2521 22.3778 62.4624 22.8437 62.4624 23.3892C62.4624 23.9403 62.2521 24.4119 61.8317 24.804C61.4169 25.1903 60.9141 25.3835 60.3232 25.3835ZM65.0554 40V26.9091H69.1037V29.2955H69.2401C69.4787 28.4318 69.8679 27.7898 70.4077 27.3693C70.9474 26.9432 71.5753 26.7301 72.2912 26.7301C72.4844 26.7301 72.6832 26.7443 72.8878 26.7727C73.0923 26.7955 73.2827 26.8324 73.4588 26.8835V30.5057C73.2599 30.4375 72.9986 30.3835 72.6747 30.3438C72.3565 30.304 72.0724 30.2841 71.8224 30.2841C71.3281 30.2841 70.8821 30.3949 70.4844 30.6165C70.0923 30.8324 69.7827 31.1364 69.5554 31.5284C69.3338 31.9148 69.223 32.3693 69.223 32.892V40H65.0554ZM86.5859 30.9062L82.7592 31.0085C82.7195 30.7358 82.6115 30.4943 82.4354 30.2841C82.2592 30.0682 82.0291 29.9006 81.745 29.7812C81.4666 29.6562 81.1428 29.5938 80.7734 29.5938C80.2905 29.5938 79.8786 29.6903 79.5376 29.8835C79.2024 30.0767 79.0376 30.3381 79.0433 30.6676C79.0376 30.9233 79.1399 31.1449 79.3501 31.3324C79.5661 31.5199 79.9496 31.6705 80.5007 31.7841L83.0234 32.2614C84.3303 32.5114 85.3018 32.9261 85.9382 33.5057C86.5803 34.0852 86.9041 34.8523 86.9098 35.8068C86.9041 36.7045 86.6371 37.4858 86.1087 38.1506C85.5859 38.8153 84.87 39.3324 83.9609 39.7017C83.0518 40.0653 82.0121 40.2472 80.8416 40.2472C78.9723 40.2472 77.4979 39.8636 76.4183 39.0966C75.3445 38.3239 74.7308 37.2898 74.5774 35.9943L78.6939 35.892C78.7848 36.3693 79.0206 36.733 79.4013 36.983C79.782 37.233 80.2678 37.358 80.8587 37.358C81.3928 37.358 81.8274 37.2585 82.1626 37.0597C82.4979 36.8608 82.6683 36.5966 82.674 36.267C82.6683 35.9716 82.5376 35.7358 82.282 35.5597C82.0263 35.3778 81.6257 35.2358 81.0803 35.1335L78.7962 34.6989C77.4837 34.4602 76.5064 34.0199 75.8643 33.3778C75.2223 32.7301 74.9041 31.9062 74.9098 30.9062C74.9041 30.0312 75.1371 29.2841 75.6087 28.6648C76.0803 28.0398 76.7507 27.5625 77.62 27.233C78.4893 26.9034 79.5149 26.7386 80.6967 26.7386C82.4695 26.7386 83.8672 27.1108 84.8899 27.8551C85.9126 28.5937 86.478 29.6108 86.5859 30.9062ZM96.3509 26.9091V29.9773H88.0923V26.9091H96.3509ZM89.8224 23.7727H93.9901V35.8835C93.9901 36.1392 94.0298 36.3466 94.1094 36.5057C94.1946 36.6591 94.3168 36.7699 94.4759 36.8381C94.6349 36.9006 94.8253 36.9318 95.0469 36.9318C95.206 36.9318 95.3736 36.9176 95.5497 36.8892C95.7315 36.8551 95.8679 36.8267 95.9588 36.804L96.5895 39.8125C96.3906 39.8693 96.1094 39.9403 95.7457 40.0256C95.3878 40.1108 94.9588 40.1648 94.4588 40.1875C93.4815 40.233 92.6435 40.1193 91.9446 39.8466C91.2514 39.5682 90.7202 39.1364 90.3509 38.5511C89.9872 37.9659 89.8111 37.2301 89.8224 36.3438V23.7727ZM103.634 40V22.5455H110.844C112.151 22.5455 113.278 22.8011 114.227 23.3125C115.182 23.8182 115.918 24.5256 116.435 25.4347C116.952 26.3381 117.21 27.3892 117.21 28.5881C117.21 29.7926 116.946 30.8466 116.418 31.75C115.895 32.6477 115.148 33.3437 114.176 33.8381C113.205 34.3324 112.051 34.5795 110.716 34.5795H106.267V31.2557H109.932C110.568 31.2557 111.099 31.1449 111.526 30.9233C111.957 30.7017 112.284 30.392 112.506 29.9943C112.727 29.5909 112.838 29.1222 112.838 28.5881C112.838 28.0483 112.727 27.5824 112.506 27.1903C112.284 26.7926 111.957 26.4858 111.526 26.2699C111.094 26.054 110.563 25.946 109.932 25.946H107.852V40H103.634ZM125.151 40.2472C123.782 40.2472 122.6 39.9773 121.606 39.4375C120.617 38.892 119.856 38.1165 119.322 37.1108C118.793 36.0994 118.529 34.8977 118.529 33.5057C118.529 32.1534 118.796 30.9716 119.33 29.9602C119.864 28.9432 120.617 28.1534 121.589 27.5909C122.56 27.0227 123.705 26.7386 125.023 26.7386C125.955 26.7386 126.808 26.8835 127.58 27.1733C128.353 27.4631 129.021 27.892 129.583 28.4602C130.146 29.0284 130.583 29.7301 130.896 30.5653C131.208 31.3949 131.364 32.3466 131.364 33.4205V34.4602H119.987V32.0398H127.487C127.481 31.5966 127.376 31.2017 127.171 30.8551C126.967 30.5085 126.685 30.2386 126.327 30.0455C125.975 29.8466 125.569 29.7472 125.109 29.7472C124.643 29.7472 124.225 29.8523 123.856 30.0625C123.487 30.267 123.194 30.5483 122.978 30.9062C122.762 31.2585 122.648 31.6591 122.637 32.108V34.571C122.637 35.1051 122.742 35.5739 122.952 35.9773C123.163 36.375 123.461 36.6847 123.847 36.9062C124.234 37.1278 124.694 37.2386 125.228 37.2386C125.597 37.2386 125.933 37.1875 126.234 37.0852C126.535 36.983 126.793 36.8324 127.009 36.6335C127.225 36.4347 127.387 36.1903 127.495 35.9006L131.322 36.0114C131.163 36.8693 130.813 37.6165 130.273 38.2528C129.739 38.8835 129.038 39.375 128.168 39.7273C127.299 40.0739 126.293 40.2472 125.151 40.2472ZM133.493 40V26.9091H137.541V29.2955H137.678C137.916 28.4318 138.305 27.7898 138.845 27.3693C139.385 26.9432 140.013 26.7301 140.729 26.7301C140.922 26.7301 141.121 26.7443 141.325 26.7727C141.53 26.7955 141.72 26.8324 141.896 26.8835V30.5057C141.697 30.4375 141.436 30.3835 141.112 30.3438C140.794 30.304 140.51 30.2841 140.26 30.2841C139.766 30.2841 139.32 30.3949 138.922 30.6165C138.53 30.8324 138.22 31.1364 137.993 31.5284C137.771 31.9148 137.661 32.3693 137.661 32.892V40H133.493ZM155.023 30.9062L151.197 31.0085C151.157 30.7358 151.049 30.4943 150.873 30.2841C150.697 30.0682 150.467 29.9006 150.183 29.7812C149.904 29.6562 149.58 29.5938 149.211 29.5938C148.728 29.5938 148.316 29.6903 147.975 29.8835C147.64 30.0767 147.475 30.3381 147.481 30.6676C147.475 30.9233 147.577 31.1449 147.788 31.3324C148.004 31.5199 148.387 31.6705 148.938 31.7841L151.461 32.2614C152.768 32.5114 153.739 32.9261 154.376 33.5057C155.018 34.0852 155.342 34.8523 155.347 35.8068C155.342 36.7045 155.075 37.4858 154.546 38.1506C154.023 38.8153 153.308 39.3324 152.398 39.7017C151.489 40.0653 150.45 40.2472 149.279 40.2472C147.41 40.2472 145.935 39.8636 144.856 39.0966C143.782 38.3239 143.168 37.2898 143.015 35.9943L147.131 35.892C147.222 36.3693 147.458 36.733 147.839 36.983C148.219 37.233 148.705 37.358 149.296 37.358C149.83 37.358 150.265 37.2585 150.6 37.0597C150.935 36.8608 151.106 36.5966 151.112 36.267C151.106 35.9716 150.975 35.7358 150.719 35.5597C150.464 35.3778 150.063 35.2358 149.518 35.1335L147.234 34.6989C145.921 34.4602 144.944 34.0199 144.302 33.3778C143.66 32.7301 143.342 31.9062 143.347 30.9062C143.342 30.0312 143.575 29.2841 144.046 28.6648C144.518 28.0398 145.188 27.5625 146.058 27.233C146.927 26.9034 147.952 26.7386 149.134 26.7386C150.907 26.7386 152.305 27.1108 153.327 27.8551C154.35 28.5937 154.915 29.6108 155.023 30.9062ZM163.51 40.2472C162.135 40.2472 160.953 39.9659 159.964 39.4034C158.982 38.8352 158.223 38.0455 157.689 37.0341C157.161 36.017 156.896 34.8381 156.896 33.4972C156.896 32.1506 157.161 30.9716 157.689 29.9602C158.223 28.9432 158.982 28.1534 159.964 27.5909C160.953 27.0227 162.135 26.7386 163.51 26.7386C164.885 26.7386 166.064 27.0227 167.047 27.5909C168.036 28.1534 168.794 28.9432 169.322 29.9602C169.857 30.9716 170.124 32.1506 170.124 33.4972C170.124 34.8381 169.857 36.017 169.322 37.0341C168.794 38.0455 168.036 38.8352 167.047 39.4034C166.064 39.9659 164.885 40.2472 163.51 40.2472ZM163.536 37.1023C164.036 37.1023 164.459 36.9489 164.805 36.642C165.152 36.3352 165.416 35.9091 165.598 35.3636C165.786 34.8182 165.879 34.1875 165.879 33.4716C165.879 32.7443 165.786 32.108 165.598 31.5625C165.416 31.017 165.152 30.5909 164.805 30.2841C164.459 29.9773 164.036 29.8239 163.536 29.8239C163.018 29.8239 162.581 29.9773 162.223 30.2841C161.871 30.5909 161.601 31.017 161.413 31.5625C161.232 32.108 161.141 32.7443 161.141 33.4716C161.141 34.1875 161.232 34.8182 161.413 35.3636C161.601 35.9091 161.871 36.3352 162.223 36.642C162.581 36.9489 163.018 37.1023 163.536 37.1023ZM176.426 32.5341V40H172.259V26.9091H176.222V29.3125H176.366C176.656 28.5114 177.151 27.8835 177.849 27.429C178.548 26.9688 179.381 26.7386 180.347 26.7386C181.267 26.7386 182.065 26.946 182.741 27.3608C183.423 27.7699 183.952 28.3437 184.327 29.0824C184.707 29.8153 184.895 30.6733 184.889 31.6562V40H180.722V32.4744C180.727 31.7472 180.543 31.179 180.168 30.7699C179.798 30.3608 179.284 30.1562 178.625 30.1562C178.188 30.1562 177.801 30.2528 177.466 30.446C177.136 30.6335 176.881 30.9034 176.699 31.2557C176.523 31.608 176.432 32.0341 176.426 32.5341ZM199.717 22.5455H203.876V34.6136C203.87 35.7443 203.6 36.733 203.066 37.5795C202.532 38.4205 201.793 39.0739 200.85 39.5398C199.913 40.0057 198.827 40.2386 197.594 40.2386C196.504 40.2386 195.512 40.0483 194.62 39.6676C193.734 39.2869 193.026 38.696 192.498 37.8949C191.975 37.0937 191.717 36.0682 191.722 34.8182H195.924C195.941 35.267 196.026 35.6506 196.18 35.9688C196.339 36.2812 196.558 36.517 196.836 36.6761C197.114 36.8352 197.447 36.9148 197.833 36.9148C198.237 36.9148 198.577 36.8295 198.856 36.6591C199.134 36.483 199.344 36.2244 199.487 35.8835C199.634 35.5426 199.711 35.1193 199.717 34.6136V22.5455ZM212.635 40.2472C211.26 40.2472 210.078 39.9659 209.089 39.4034C208.107 38.8352 207.348 38.0455 206.814 37.0341C206.286 36.017 206.021 34.8381 206.021 33.4972C206.021 32.1506 206.286 30.9716 206.814 29.9602C207.348 28.9432 208.107 28.1534 209.089 27.5909C210.078 27.0227 211.26 26.7386 212.635 26.7386C214.01 26.7386 215.189 27.0227 216.172 27.5909C217.161 28.1534 217.919 28.9432 218.447 29.9602C218.982 30.9716 219.249 32.1506 219.249 33.4972C219.249 34.8381 218.982 36.017 218.447 37.0341C217.919 38.0455 217.161 38.8352 216.172 39.4034C215.189 39.9659 214.01 40.2472 212.635 40.2472ZM212.661 37.1023C213.161 37.1023 213.584 36.9489 213.93 36.642C214.277 36.3352 214.541 35.9091 214.723 35.3636C214.911 34.8182 215.004 34.1875 215.004 33.4716C215.004 32.7443 214.911 32.108 214.723 31.5625C214.541 31.017 214.277 30.5909 213.93 30.2841C213.584 29.9773 213.161 29.8239 212.661 29.8239C212.143 29.8239 211.706 29.9773 211.348 30.2841C210.996 30.5909 210.726 31.017 210.538 31.5625C210.357 32.108 210.266 32.7443 210.266 33.4716C210.266 34.1875 210.357 34.8182 210.538 35.3636C210.726 35.9091 210.996 36.3352 211.348 36.642C211.706 36.9489 212.143 37.1023 212.661 37.1023ZM232.812 30.9062L228.986 31.0085C228.946 30.7358 228.838 30.4943 228.662 30.2841C228.486 30.0682 228.256 29.9006 227.972 29.7812C227.693 29.6562 227.369 29.5938 227 29.5938C226.517 29.5938 226.105 29.6903 225.764 29.8835C225.429 30.0767 225.264 30.3381 225.27 30.6676C225.264 30.9233 225.366 31.1449 225.577 31.3324C225.793 31.5199 226.176 31.6705 226.727 31.7841L229.25 32.2614C230.557 32.5114 231.528 32.9261 232.165 33.5057C232.807 34.0852 233.131 34.8523 233.136 35.8068C233.131 36.7045 232.864 37.4858 232.335 38.1506C231.812 38.8153 231.097 39.3324 230.188 39.7017C229.278 40.0653 228.239 40.2472 227.068 40.2472C225.199 40.2472 223.724 39.8636 222.645 39.0966C221.571 38.3239 220.957 37.2898 220.804 35.9943L224.92 35.892C225.011 36.3693 225.247 36.733 225.628 36.983C226.009 37.233 226.494 37.358 227.085 37.358C227.619 37.358 228.054 37.2585 228.389 37.0597C228.724 36.8608 228.895 36.5966 228.901 36.267C228.895 35.9716 228.764 35.7358 228.509 35.5597C228.253 35.3778 227.852 35.2358 227.307 35.1335L225.023 34.6989C223.71 34.4602 222.733 34.0199 222.091 33.3778C221.449 32.7301 221.131 31.9062 221.136 30.9062C221.131 30.0312 221.364 29.2841 221.835 28.6648C222.307 28.0398 222.977 27.5625 223.847 27.233C224.716 26.9034 225.741 26.7386 226.923 26.7386C228.696 26.7386 230.094 27.1108 231.116 27.8551C232.139 28.5937 232.705 29.6108 232.812 30.9062ZM239.356 32.5341V40H235.188V22.5455H239.219V29.3125H239.364C239.66 28.5057 240.143 27.875 240.813 27.4205C241.489 26.9659 242.316 26.7386 243.293 26.7386C244.214 26.7386 245.015 26.9432 245.697 27.3523C246.379 27.7557 246.907 28.3267 247.282 29.0653C247.663 29.804 247.85 30.6676 247.844 31.6562V40H243.677V32.4744C243.683 31.7472 243.501 31.179 243.131 30.7699C242.762 30.3608 242.242 30.1562 241.572 30.1562C241.134 30.1562 240.748 30.2528 240.413 30.446C240.083 30.6335 239.825 30.9034 239.637 31.2557C239.455 31.608 239.362 32.0341 239.356 32.5341Z" fill="#F0DD34"/>
</svg>
